<svg xmlns="http://www.w3.org/2000/svg" viewBox="9.35391 9.058 29.29 31.88">
  <path d="M 38.646 14.226 c 0.016 -3.462 -7.554 -5.104 -14.601 -5.166 l -0.413 -0.002 c -6.855 0 -14.249 1.541 -14.278 4.922 v 17.847 c -0.009 1.021 0.681 2.433 3.839 3.579 l -0.614 4.398 a 1 1 0 0 0 1.981 0.278 l 0.571 -4.09 c 1.758 0.439 3.805 0.746 5.995 0.898 v 0.578 a 1 1 0 1 0 2 0 v -0.486 c 0.277 0.008 0.553 0.018 0.833 0.02 l 0.411 0.002 c 3.186 0 6.199 -0.32 8.639 -0.91 l 0.558 3.988 a 0.999 0.999 0 0 0 1.129 0.851 a 1 1 0 0 0 0.852 -1.129 l -0.599 -4.284 c 3.005 -1.08 3.691 -2.443 3.699 -3.448 l -0.002 -17.846 Z m -15.014 -3.167 l 0.396 0.002 c 8.343 0.072 12.627 2.246 12.619 3.157 c -0.008 0.998 -4.349 2.939 -12.276 2.939 l -0.395 -0.002 c -3.553 -0.031 -6.876 -0.466 -9.357 -1.225 c -2.384 -0.73 -3.268 -1.572 -3.265 -1.932 c 0.008 -0.997 4.35 -2.939 12.278 -2.939 Z m 11.031 22.429 l -0.219 -1.568 a 0.996 0.996 0 0 0 -0.339 -0.62 l -1.66 -1.426 a 1 1 0 0 0 -1.303 1.517 l 1.373 1.18 l 0.214 1.529 c -2.415 0.609 -5.491 0.931 -8.754 0.902 c -3.19 -0.028 -6.189 -0.384 -8.566 -1.006 l 0.199 -1.426 l 1.373 -1.18 a 1 1 0 1 0 -1.303 -1.517 l -1.66 1.426 a 0.996 0.996 0 0 0 -0.339 0.62 l -0.203 1.451 c -1.519 -0.614 -2.125 -1.233 -2.123 -1.534 v -8.433 c 0.667 0.394 1.537 0.776 2.68 1.125 c 2.66 0.814 6.186 1.28 9.925 1.313 l 0.413 0.002 c 3.584 0 6.955 -0.403 9.53 -1.143 c 1.174 -0.337 2.065 -0.713 2.745 -1.105 v 8.468 c -0.001 0.286 -0.574 0.858 -1.983 1.425 Z m -1.314 -10.709 c -2.494 0.717 -5.81 1.087 -9.373 1.063 c -3.553 -0.031 -6.876 -0.466 -9.357 -1.225 c -2.384 -0.73 -3.268 -1.572 -3.265 -1.932 v -3.969 c 0.667 0.394 1.537 0.776 2.68 1.125 c 2.66 0.814 6.186 1.28 9.925 1.313 l 0.412 0.002 c 4.683 0 9.61 -0.72 12.276 -2.252 v 4 c -0.003 0.361 -0.901 1.187 -3.298 1.875 Z" fill="#ff7a1f"/>
</svg>