<svg xmlns="http://www.w3.org/2000/svg" viewBox="5.028 14 37.95 20">
  <path d="M 42.969 20.485 c 0 -0.008 0.004 -0.015 0.004 -0.022 c 0 -2.353 -4.512 -3.188 -8.377 -3.188 c -1.771 0 -3.674 0.179 -5.221 0.596 c -0.748 -1.649 -4.27 -2.258 -7.339 -2.258 c -1.427 0 -2.947 0.134 -4.247 0.438 C 17.04 14.112 12.453 14 11.466 14 c -1.075 0 -6.438 0.126 -6.438 2.612 c 0 0.013 0.005 0.023 0.005 0.036 h -0.004 l 0.375 10.378 c 0 2.298 4.238 2.546 6.062 2.546 c 1.257 0 2.441 -0.118 3.438 -0.338 c 0.418 1.891 4.02 2.574 7.132 2.574 c 1.689 0 3.296 -0.189 4.562 -0.522 c 0.551 1.988 4.541 2.711 7.998 2.711 c 3.756 0 8.141 -0.835 8.141 -3.166 l 0.137 -5.981 l 0.008 -0.016 l -0.008 -0.003 l 0.1 -4.347 h -0.005 Z M 7.102 18.643 c 1.633 0.537 3.733 0.584 4.363 0.584 c 0.474 0 1.78 -0.025 3.095 -0.266 l 0.054 1.76 c -0.88 0.209 -1.984 0.331 -3.148 0.331 c -2.154 0 -3.698 -0.389 -4.303 -0.723 l -0.061 -1.686 Z m 9.511 2.03 c 1.48 0.56 3.536 0.79 5.423 0.79 c 1.409 0 2.912 -0.131 4.203 -0.428 l 0.051 1.732 c -1.117 0.327 -2.625 0.521 -4.253 0.521 c -2.933 0 -4.8 -0.575 -5.372 -0.966 l -0.052 -1.649 Z m 11.676 2.024 c 1.668 0.678 4.092 0.954 6.307 0.954 c 2.223 0 4.656 -0.278 6.326 -0.961 l -0.037 1.576 c -0.504 0.428 -2.623 1.21 -6.289 1.21 c -3.586 0 -5.699 -0.751 -6.26 -1.184 l -0.047 -1.595 Z m 12.584 -2.234 c -0.559 0.433 -2.688 1.188 -6.277 1.188 s -5.717 -0.756 -6.275 -1.188 c 0.559 -0.433 2.688 -1.188 6.275 -1.188 c 3.59 0 5.718 0.755 6.277 1.188 Z M 27.35 18.538 c -0.643 0.389 -2.486 0.925 -5.314 0.925 c -2.827 0 -4.671 -0.536 -5.313 -0.925 c 0.643 -0.389 2.484 -0.925 5.313 -0.925 s 4.673 0.536 5.314 0.925 Z m -15.885 -2.537 c 1.983 0 3.401 0.327 4.085 0.612 c -0.684 0.286 -2.101 0.613 -4.085 0.613 c -1.983 0 -3.4 -0.327 -4.083 -0.613 c 0.683 -0.285 2.1 -0.612 4.083 -0.612 Z M 7.399 26.869 l -0.157 -4.368 c 1.258 0.392 2.855 0.551 4.224 0.551 c 1.13 0 2.2 -0.103 3.134 -0.282 c 0.021 0.076 0.053 0.148 0.084 0.222 l 0.128 4.2 c -0.905 0.24 -2.084 0.382 -3.346 0.382 c -2.436 -0.001 -3.742 -0.453 -4.067 -0.705 Z m 9.461 1.894 l -0.129 -4.222 c 1.472 0.527 3.468 0.747 5.305 0.747 c 1.563 0 3.062 -0.164 4.285 -0.453 l 0.033 0.086 l 0.129 4.319 c -1.117 0.356 -2.75 0.569 -4.447 0.569 c -3.038 0.001 -4.845 -0.671 -5.176 -1.046 Z m 17.736 3.235 c -3.754 0 -5.846 -0.85 -6.066 -1.218 l -0.125 -4.21 c 1.664 0.644 4.029 0.906 6.191 0.906 c 2.117 0 4.543 -0.268 6.238 -0.938 l -0.096 4.197 c -0.324 0.446 -2.437 1.263 -6.142 1.263 Z" fill="#ff7a1f"/>
</svg>