<svg xmlns="http://www.w3.org/2000/svg" viewBox="8.30071 8.81189 31.4 30.37">
  <path d="M 39.362 37.438 l -4.768 -4.215 c 1.48 -2.252 2.522 -5.383 2.891 -8.768 c 0.789 -7.257 -1.669 -13.276 -5.597 -13.721 v -0.002 L 16.88 8.835 c -3.953 -0.42 -7.643 4.931 -8.432 12.197 c -0.652 5.989 0.912 11.129 3.676 12.993 l -0.907 1.467 a 1 1 0 1 0 1.701 1.05 l 1.107 -1.791 c 0.007 0 0.013 0.002 0.019 0.004 l 6.597 0.834 l -0.668 1.311 a 1 1 0 1 0 1.783 0.908 l 0.995 -1.953 l 6.285 0.795 v -0.002 a 4.225 4.225 0 0 0 0.468 0.027 c 0.297 0 0.594 -0.041 0.891 -0.105 l -0.018 0.381 c -0.002 0.049 0.018 0.092 0.022 0.139 c 0.007 0.068 0.011 0.133 0.03 0.195 s 0.049 0.117 0.08 0.172 a 0.826 0.826 0 0 0 0.099 0.162 c 0.04 0.051 0.088 0.088 0.138 0.129 a 0.956 0.956 0 0 0 0.153 0.115 c 0.058 0.031 0.119 0.049 0.183 0.068 c 0.046 0.014 0.085 0.043 0.134 0.051 l 7.324 1.191 a 1 1 0 0 0 0.822 -1.735 Z m -7.054 -11.944 a 0.363 0.363 0 0 1 -0.357 0.326 l -0.035 -0.002 a 0.36 0.36 0 0 1 -0.323 -0.395 l 0.079 -0.831 c 0.018 -0.182 0.173 -0.324 0.389 -0.324 h 0.004 c 0.197 0.02 0.344 0.195 0.324 0.394 l -0.081 0.832 Z m -17.159 5.537 a 0.997 0.997 0 0 0 -1.376 0.324 l -0.59 0.955 c -1.895 -1.359 -3.341 -5.611 -2.747 -11.061 c 0.703 -6.467 3.855 -10.692 6.21 -10.428 l 4.14 0.523 c -2.246 2.042 -3.997 5.953 -4.512 10.687 c -0.496 4.566 0.311 8.722 1.994 11.242 l -3.088 -0.391 l 0.294 -0.477 a 0.996 0.996 0 0 0 -0.325 -1.374 Z m 8.34 1.172 a 0.998 0.998 0 0 0 -1.346 0.436 l -0.538 1.057 l -0.1 -0.014 l 0.024 -0.059 c -2.121 -0.854 -3.924 -5.34 -3.268 -11.375 c 0.619 -5.688 3.312 -9.688 5.43 -10.536 l 4.253 0.537 c -2.243 2.044 -3.992 5.948 -4.507 10.678 c -0.504 4.633 0.32 8.756 2.002 11.252 l -1.726 -0.219 l 0.211 -0.414 a 0.996 0.996 0 0 0 -0.435 -1.343 Z m 5.782 2.461 h -0.004 c -2.38 -0.262 -4.543 -5.057 -3.84 -11.52 c 0.703 -6.466 3.854 -10.704 6.229 -10.426 c 2.381 0.259 4.545 5.054 3.842 11.52 c -0.322 2.959 -1.188 5.678 -2.414 7.647 l -0.467 -0.412 l 0.166 -3.805 a 2.352 2.352 0 0 0 1.516 -1.982 l 0.08 -0.832 a 2.361 2.361 0 0 0 -2.121 -2.575 a 2.351 2.351 0 0 0 -2.576 2.122 l -0.08 0.832 a 2.355 2.355 0 0 0 1.187 2.275 l -0.302 6.943 c -0.415 0.18 -0.823 0.254 -1.216 0.213 Z m 3.142 1.486 l 0.092 -2.107 l 2.941 2.602 l -3.033 -0.495 Z" fill="#ff7a1f"/>
</svg>