<svg xmlns="http://www.w3.org/2000/svg" viewBox="3.889 10.456 40.22 27.54">
  <path d="M 44.104 26.382 c 0 -0.54 -0.158 -1.062 -0.469 -1.562 c 0.238 -0.437 0.371 -0.899 0.371 -1.389 c 0 -4.081 -8.952 -6.261 -17.472 -6.604 c -0.411 -0.607 -0.897 -1.161 -1.446 -1.505 v -0.135 l 0.857 -0.968 a 0.5 0.5 0 1 0 -0.748 -0.664 l -0.109 0.125 v -2.224 a 1 1 0 0 0 -2 0 v 2.306 l -0.199 -0.221 a 0.499 0.499 0 1 0 -0.744 0.668 l 0.891 0.991 c -0.641 0.321 -1.201 0.938 -1.662 1.627 c -8.525 0.341 -17.485 2.52 -17.485 6.604 c 0 0.553 0.163 1.073 0.466 1.559 c -0.244 0.445 -0.369 0.91 -0.369 1.392 c 0 4.227 9.428 6.505 19.061 6.651 v 3.966 a 1 1 0 1 0 2 0 v -3.966 c 9.629 -0.146 19.057 -2.426 19.057 -6.651 Z m -23.809 -7.503 c -0.111 0.266 -0.203 0.499 -0.264 0.668 a 1 1 0 0 0 1.879 0.687 c 0.574 -1.572 1.587 -3.192 2.028 -3.27 c 0.459 0.075 1.493 1.699 2.089 3.278 a 0.997 0.997 0 0 0 1.287 0.583 a 0.997 0.997 0 0 0 0.584 -1.287 a 14.629 14.629 0 0 0 -0.266 -0.659 c 9.271 0.54 14.373 2.959 14.373 4.551 c 0 1.899 -7.035 4.66 -18.059 4.66 c -11.024 0 -18.06 -2.761 -18.06 -4.66 c 0.002 -1.593 5.116 -4.016 14.409 -4.551 Z m 3.93 12.16 c -0.061 -0.012 -0.117 -0.036 -0.18 -0.036 c -0.064 0 -0.119 0.024 -0.18 0.036 c -10.496 -0.029 -17.316 -2.557 -17.83 -4.432 c 3.491 2.297 10.732 3.484 17.912 3.484 c 7.344 0 14.749 -1.244 18.143 -3.646 c -0.151 1.887 -7.067 4.564 -17.865 4.594 Z" fill="#ff7a1f"/>
</svg>