<svg xmlns="http://www.w3.org/2000/svg" viewBox="5.197 12.6576 53.49 36.64">
  <path d="M 31.943 36.12 c -14.699 0 -24.079 -3.68 -24.079 -6.213 c 0 -2.125 6.819 -5.356 19.21 -6.07 c -0.15 0.355 -0.27 0.666 -0.353 0.891 a 1.335 1.335 0 0 0 1.252 1.792 c 0.546 0 1.055 -0.336 1.254 -0.876 c 0.765 -2.097 2.116 -4.256 2.705 -4.36 c 0.612 0.1 1.99 2.266 2.784 4.371 a 1.332 1.332 0 1 0 2.496 -0.937 c -0.083 -0.223 -0.205 -0.53 -0.355 -0.879 c 12.363 0.72 19.166 3.947 19.166 6.068 c 0 2.533 -9.382 6.213 -24.08 6.213 Z m 26.746 -6.213 c 0 -5.441 -11.937 -8.347 -23.297 -8.805 c -0.579 -0.858 -1.273 -1.634 -2.059 -2.082 v -0.105 l 1.144 -1.29 a 0.667 0.667 0 1 0 -0.997 -0.886 l -0.147 0.167 V 13.94 a 1.334 1.334 0 0 0 -2.666 0 v 3.075 l -0.266 -0.295 a 0.668 0.668 0 0 0 -0.992 0.89 l 1.228 1.368 c -0.817 0.44 -1.533 1.237 -2.125 2.124 c -11.37 0.456 -23.315 3.36 -23.315 8.805 c 0 5.635 12.57 8.672 25.412 8.87 v 9.22 a 1.334 1.334 0 0 0 2.667 0 v -9.22 c 12.843 -0.198 25.413 -3.235 25.413 -8.87" fill="#ff7a1f"/>
</svg>