<svg xmlns="http://www.w3.org/2000/svg" viewBox="5.04001 10.5319 37.92 26.94">
  <path d="M 42.773 10.951 a 1 1 0 0 0 -1.395 -0.233 l -8.987 6.419 c -2.588 -0.463 -5.512 -0.704 -8.432 -0.704 c -2.896 0 -5.795 0.237 -8.368 0.693 L 6.62 10.718 a 1.002 1.002 0 0 0 -1.395 0.233 a 1.002 1.002 0 0 0 0.234 1.395 l 7.503 5.359 c -3.532 0.953 -5.97 2.431 -6.023 4.417 h -0.016 l 0.108 9.61 c 0 3.766 8.553 5.736 17.001 5.736 h 0.002 c 8.448 0 17 -1.984 17 -5.779 l -0.042 -9.505 h -0.001 c -0.003 -2.007 -2.437 -3.5 -5.976 -4.463 l 7.525 -5.375 a 0.999 0.999 0 0 0 0.233 -1.395 Z M 9.031 31.721 l -0.075 -6.668 c 1.192 0.749 2.837 1.356 4.769 1.816 v 7.467 c -3.099 -0.811 -4.694 -1.885 -4.694 -2.615 Z m 16.003 -3.792 c 2.486 -0.05 4.941 -0.269 7.162 -0.653 v 7.502 c -1.98 0.369 -4.377 0.625 -7.162 0.676 v -7.525 Z m -2 7.524 c -2.868 -0.049 -5.309 -0.306 -7.31 -0.678 v -7.5 c 2.264 0.393 4.773 0.612 7.31 0.655 v 7.523 Z m 11.162 -1.115 v -7.469 c 1.954 -0.465 3.613 -1.082 4.809 -1.844 l 0.029 6.668 c 0 0.719 -1.666 1.818 -4.838 2.645 Z m 4.796 -12.15 c 0 1.275 -5.306 3.756 -15.032 3.756 c -9.726 0 -15.031 -2.481 -15.031 -3.756 c 0 -0.809 2.145 -2.102 6.193 -2.94 l 5.257 3.755 a 1 1 0 0 0 1.162 -1.628 l -3.616 -2.583 a 48.704 48.704 0 0 1 6.035 -0.359 c 2.286 0 4.318 0.141 6.104 0.367 l -3.605 2.575 a 1 1 0 0 0 1.162 1.628 l 5.24 -3.743 c 4.01 0.839 6.131 2.124 6.131 2.928 Z" fill="#ff7a1f"/>
</svg>