<svg width="52" height="63" viewBox="0 0 52 63" fill="none" xmlns="http://www.w3.org/2000/svg">
<path d="M25.8194 60.0798C25.8194 60.0798 -9.40952 24.5835 5.81938 10.0798C17.1311 -0.693271 34.5076 -0.693271 45.8194 10.0798C61.0483 24.5835 25.8194 60.0798 25.8194 60.0798Z" fill="url(#paint0_linear_102_18)" stroke="url(#paint1_linear_102_18)" stroke-width="3"/>
<path d="M21.152 32.416C20.8 32.416 20.344 32.384 19.784 32.32C19.224 32.272 18.632 32.184 18.008 32.056C17.384 31.928 16.792 31.752 16.232 31.528C15.672 31.304 15.216 31.024 14.864 30.688C14.512 30.336 14.336 29.92 14.336 29.44C14.336 28.768 14.528 28.208 14.912 27.76C15.296 27.296 15.784 26.92 16.376 26.632C16.968 26.344 17.584 26.128 18.224 25.984C18.88 25.824 19.472 25.728 20 25.696C20.16 25.408 20.376 25.032 20.648 24.568C20.92 24.088 21.216 23.576 21.536 23.032C21.872 22.472 22.208 21.928 22.544 21.4C22.896 20.872 23.224 20.4 23.528 19.984C23.832 19.552 24.088 19.232 24.296 19.024C24.536 18.8 24.784 18.648 25.04 18.568C25.312 18.488 25.608 18.448 25.928 18.448C26.056 18.448 26.232 18.48 26.456 18.544C26.696 18.592 26.824 18.688 26.84 18.832C26.808 18.976 26.712 19.128 26.552 19.288C26.408 19.432 26.288 19.56 26.192 19.672C25.136 20.84 24.232 21.904 23.48 22.864C22.744 23.824 22.096 24.76 21.536 25.672C22.4 25.688 23.312 25.768 24.272 25.912C25.232 26.04 26.184 26.24 27.128 26.512C28.072 26.768 28.952 27.112 29.768 27.544C30.584 27.96 31.272 28.464 31.832 29.056C32.28 28.784 32.768 28.448 33.296 28.048C33.84 27.632 34.352 27.168 34.832 26.656C35.328 26.144 35.736 25.592 36.056 25C36.376 24.408 36.536 23.8 36.536 23.176C36.536 22.328 36.28 21.6 35.768 20.992C35.256 20.384 34.584 19.88 33.752 19.48C32.92 19.08 32.032 18.768 31.088 18.544C30.144 18.32 29.224 18.16 28.328 18.064C27.448 17.968 26.696 17.92 26.072 17.92C24.84 17.92 23.632 18.04 22.448 18.28C21.28 18.504 20.112 18.824 18.944 19.24C18.784 19.288 18.568 19.376 18.296 19.504C18.04 19.616 17.784 19.72 17.528 19.816C17.272 19.912 17.072 19.96 16.928 19.96C16.576 19.96 16.4 19.792 16.4 19.456C16.4 19.136 16.592 18.856 16.976 18.616C17.36 18.376 17.864 18.168 18.488 17.992C19.128 17.816 19.816 17.68 20.552 17.584C21.288 17.472 22.008 17.384 22.712 17.32C23.416 17.256 24.04 17.216 24.584 17.2C25.144 17.168 25.544 17.152 25.784 17.152C26.424 17.152 27.16 17.192 27.992 17.272C28.84 17.336 29.72 17.456 30.632 17.632C31.56 17.792 32.456 18.024 33.32 18.328C34.2 18.616 34.992 18.984 35.696 19.432C36.4 19.88 36.96 20.424 37.376 21.064C37.808 21.704 38.024 22.448 38.024 23.296C38.024 24.032 37.84 24.736 37.472 25.408C37.104 26.08 36.632 26.704 36.056 27.28C35.48 27.856 34.88 28.376 34.256 28.84C33.632 29.288 33.056 29.664 32.528 29.968C32.576 30.032 32.616 30.104 32.648 30.184C32.696 30.264 32.72 30.344 32.72 30.424C32.72 30.568 32.616 30.64 32.408 30.64C32.344 30.64 32.264 30.6 32.168 30.52C32.072 30.424 32 30.352 31.952 30.304C30.224 31.136 28.464 31.696 26.672 31.984C24.896 32.272 23.056 32.416 21.152 32.416ZM21.368 31.84C23.048 31.84 24.712 31.624 26.36 31.192C28.024 30.76 29.608 30.168 31.112 29.416C30.424 28.792 29.568 28.256 28.544 27.808C27.536 27.344 26.472 26.992 25.352 26.752C24.248 26.496 23.208 26.368 22.232 26.368C22.088 26.368 21.944 26.368 21.8 26.368C21.656 26.368 21.52 26.376 21.392 26.392L21.128 26.416C20.856 26.88 20.568 27.376 20.264 27.904C19.976 28.432 19.728 28.976 19.52 29.536C19.328 30.096 19.232 30.648 19.232 31.192C19.232 31.448 19.12 31.6 18.896 31.648C19.312 31.728 19.72 31.776 20.12 31.792C20.536 31.824 20.952 31.84 21.368 31.84ZM18.32 31.504C18.24 31.424 18.184 31.32 18.152 31.192C18.12 31.08 18.104 30.968 18.104 30.856C18.104 30.6 18.16 30.28 18.272 29.896C18.384 29.496 18.52 29.08 18.68 28.648C18.856 28.2 19.024 27.784 19.184 27.4C19.36 27.016 19.504 26.704 19.616 26.464C19.104 26.544 18.56 26.704 17.984 26.944C17.424 27.168 16.944 27.488 16.544 27.904C16.16 28.32 15.968 28.848 15.968 29.488C15.968 29.84 16.104 30.16 16.376 30.448C16.664 30.72 16.992 30.944 17.36 31.12C17.728 31.296 18.048 31.424 18.32 31.504Z" fill="#FF7A1F"/>
<defs>
<linearGradient id="paint0_linear_102_18" x1="25.8194" y1="2" x2="25.8194" y2="60.0798" gradientUnits="userSpaceOnUse">
<stop/>
<stop offset="1" stop-color="#373737"/>
</linearGradient>
<linearGradient id="paint1_linear_102_18" x1="25.8194" y1="2" x2="25.8194" y2="60.0798" gradientUnits="userSpaceOnUse">
<stop stop-color="#FF7A1F"/>
<stop offset="1" stop-color="#F33A00"/>
</linearGradient>
</defs>
</svg>
