<svg xmlns="http://www.w3.org/2000/svg" viewBox="4.00296 13.483 37.99 21.03">
  <path d="M 41.996 28.738 l -0.042 -9.505 h -0.001 c -0.007 -3.775 -8.57 -5.75 -17.031 -5.75 c -6.639 0 -13.322 1.222 -15.904 3.569 l -3.937 -0.312 a 1 1 0 0 0 -0.158 1.994 l 3.006 0.239 c -0.008 0.067 -0.026 0.131 -0.028 0.199 h -0.016 l 0.108 9.61 c 0 3.766 8.553 5.736 17.001 5.736 h 0.002 c 8.448 0 17 -1.985 17 -5.78 Z m -18.153 -8.503 l 0.08 0.003 a 1 1 0 0 0 0.078 -1.997 l -11.51 -0.914 c 2.476 -0.974 6.671 -1.845 12.431 -1.845 c 9.727 0 15.032 2.48 15.032 3.755 s -5.306 3.756 -15.032 3.756 c -9.726 0 -15.031 -2.481 -15.031 -3.756 c 0 -0.034 0.019 -0.072 0.026 -0.107 l 13.926 1.105 Z m 0.153 4.744 v 7.522 c -2.868 -0.049 -5.309 -0.306 -7.31 -0.678 v -7.5 c 2.264 0.394 4.774 0.614 7.31 0.656 Z m 2 -0.001 c 2.486 -0.049 4.941 -0.269 7.162 -0.654 v 7.502 c -1.98 0.369 -4.377 0.625 -7.162 0.676 v -7.524 Z M 9.993 28.77 l -0.075 -6.668 c 1.192 0.749 2.837 1.356 4.769 1.817 v 7.466 c -3.099 -0.811 -4.694 -1.885 -4.694 -2.615 Z m 25.165 2.617 v -7.468 c 1.954 -0.466 3.613 -1.083 4.809 -1.844 l 0.029 6.667 c 0 0.719 -1.666 1.818 -4.838 2.645 Z" fill="#ff7a1f"/>
</svg>